<svg width="538px" height="144px" viewBox="0 0 538 144" version="1.1" xmlns="http://www.w3.org/2000/svg" xmlns:xlink="http://www.w3.org/1999/xlink">
    <!-- Generator: Sketch 50.2 (55047) - http://www.bohemiancoding.com/sketch -->
    <desc>Created with Sketch.</desc>
    <defs></defs>
    <g id="Page-1" stroke="none" stroke-width="1" fill="none" fill-rule="evenodd">
        <g id="Logo" transform="translate(-1.000000, 0.000000)">
            <polygon id="Triangle" fill="#F37300" points="35.0678711 90 1 108 1 72"></polygon>
            <polygon id="Triangle" fill="#EF171D" points="35.0678711 54 1 72 1 36"></polygon>
            <polygon id="Triangle" fill="#F7F701" points="35.0678711 126 1 144 1 108"></polygon>
            <polygon id="Triangle" fill="#ED3700" transform="translate(17.997849, 72.000000) rotate(-180.000000) translate(-17.997849, -72.000000) " points="35 72 0.995697021 90 0.995697021 54"></polygon>
            <polygon id="Triangle" fill="#017AD5" transform="translate(18.002151, 36.000000) rotate(-180.000000) translate(-18.002151, -36.000000) " points="35.004303 36 1 54 1 18"></polygon>
            <polygon id="Triangle" fill="#009287" transform="translate(52.002151, 18.000000) rotate(-180.000000) translate(-52.002151, -18.000000) " points="69.004303 18 35 36 35 0"></polygon>
            <polygon id="Triangle" fill="#01AA3D" transform="translate(86.002151, 36.000000) rotate(-180.000000) translate(-86.002151, -36.000000) " points="103.004303 36 69 54 69 18"></polygon>
            <polygon id="Triangle" fill="#EE171F" transform="translate(120.002151, 54.000000) rotate(-180.000000) translate(-120.002151, -54.000000) " points="137.004303 54 103 72 103 36"></polygon>
            <polygon id="Triangle" fill="#D80E69" transform="translate(86.002151, 72.000000) rotate(-180.000000) translate(-86.002151, -72.000000) " points="103.004303 72 69 90 69 54"></polygon>
            <polygon id="Triangle" fill="#510572" transform="translate(86.002151, 108.000000) rotate(-180.000000) translate(-86.002151, -108.000000) " points="103.004303 108 69 126 69 90"></polygon>
            <polygon id="Triangle" fill="#0053AB" transform="translate(120.002151, 126.000000) rotate(-180.000000) translate(-120.002151, -126.000000) " points="137.004303 126 103 144 103 108"></polygon>
            <polygon id="Triangle" fill="#008EBE" points="69.004303 36 35 54 35 18"></polygon>
            <polygon id="Triangle" fill="#00914E" points="103.004303 18 69 36 69 0"></polygon>
            <polygon id="Triangle" fill="#6FCE0E" points="137.004303 36 103 54 103 18"></polygon>
            <polygon id="Triangle" fill="#F11452" points="137.004303 72 103 90 103 54"></polygon>
            <polygon id="Triangle" fill="#930A72" points="103.004303 90 69 108 69 72"></polygon>
            <polygon id="Triangle" fill="#091F86" points="137.004303 108 103 126 103 90"></polygon>
            <polygon id="Triangle" fill="#FBB300" transform="translate(18.002151, 108.000000) rotate(-180.000000) translate(-18.002151, -108.000000) " points="35.004303 108 1 126 1 90"></polygon>
            <path d="M200,63.6 C194.933308,63.6 191.433343,64.566657 189.5,66.5 L189.5,89.4 C194.900027,90.400005 198.59999,91.799991 200.6,93.6 L199.6,101.3 L171,101.3 L170,93.6 C170.933338,92.333327 172.766653,91.200005 175.5,90.2 L175.5,62.4 C173.166655,61.599996 171.33334,60.466674 170,59 L171,51.3 C174.666685,50.499996 177.966652,50.1 180.9,50.1 C183.833348,50.1 186.266657,50.166666 188.2,50.3 L188.2,56.6 C189.733341,54.799991 191.699988,53.3166725 194.1,52.15 C196.500012,50.9833275 198.683324,50.4 200.65,50.4 C202.616677,50.4 203.966663,50.566665 204.7,50.9 L204.4,63.9 C203.06666,63.699999 201.600008,63.6 200,63.6 Z M232.8,102.1 C224.79996,102.1 218.783354,99.966688 214.75,95.7 C210.716646,91.433312 208.7,85.233374 208.7,77.1 C208.7,72.166642 209.399993,67.9166845 210.8,64.35 C212.200007,60.7833155 214.099988,58.033343 216.5,56.1 C221.16669,52.366648 226.599969,50.5 232.8,50.5 C239.000031,50.5 243.749984,52.0833175 247.05,55.25 C250.350017,58.4166825 252,64.099959 252,72.3 C252,77.100024 249.633357,79.5 244.9,79.5 L223.2,79.5 C223.466668,83.700021 224.549991,86.666658 226.45,88.4 C228.35001,90.133342 231.366646,91 235.5,91 C237.766678,91 239.933323,90.733336 242,90.2 C244.066677,89.666664 245.566662,89.133336 246.5,88.6 L247.9,87.8 L250.9,95.8 C250.499998,96.266669 249.916671,96.8499965 249.15,97.55 C248.38333,98.2500035 246.450016,99.1833275 243.35,100.35 C240.249985,101.516672 236.733353,102.1 232.8,102.1 Z M239.1,70.6 C239.233334,69.666662 239.3,68.53334 239.3,67.2 C239.3,65.86666 238.766672,64.4500075 237.7,62.95 C236.633328,61.4499925 234.783347,60.7 232.15,60.7 C229.516654,60.7 227.500007,61.499992 226.1,63.1 C224.699993,64.700008 223.766669,67.399981 223.3,71.2 L239.1,70.6 Z M259.1,58.7 C259.1,57.699995 259.133333,56.633339 259.2,55.5 C265.400031,52.16665 272.066631,50.5 279.2,50.5 C286.333369,50.5 291.449985,51.8499865 294.55,54.55 C297.650015,57.2500135 299.2,61.733302 299.2,68 L299.2,89.3 C301.533345,89.766669 303.36666,90.33333 304.7,91 L304.7,99.7 C301.299983,101.300008 296.433365,102.1 290.1,102.1 C289.43333,100.366658 288.866669,98.266679 288.4,95.8 C285.533319,100.000021 280.333371,102.1 272.8,102.1 C268.333311,102.1 264.516683,100.800013 261.35,98.2 C258.183318,95.599987 256.6,92.066689 256.6,87.6 C256.6,83.133311 258.083319,79.6166795 261.05,77.05 C264.016682,74.4833205 268.433304,73.2 274.3,73.2 L285.2,73.2 L285.2,68.4 C285.2,63.199974 282.433361,60.6 276.9,60.6 C274.833323,60.6 273.13334,60.799998 271.8,61.2 C271.666666,64.000014 271.26667,66.166659 270.6,67.7 L260.8,67.7 C259.666661,65.366655 259.1,62.366685 259.1,58.7 Z M277.1,91.9 C280.500017,91.9 283.19999,90.90001 285.2,88.9 L285.2,80.7 L278.2,80.7 C273.399976,80.7 271,82.533315 271,86.2 C271,87.866675 271.516662,89.233328 272.55,90.3 C273.583338,91.366672 275.09999,91.9 277.1,91.9 Z M308.1,30.3 C311.833352,29.433329 315.299984,29 318.5,29 C321.700016,29 324.399989,29.099999 326.6,29.3 L326.6,90.2 C329.200013,91.200005 331.033328,92.333327 332.1,93.6 L331.1,101.3 L308.1,101.3 L307.1,93.6 C308.033338,92.333327 309.866653,91.200005 312.6,90.2 L312.6,41.4 C310.266655,40.599996 308.43334,39.466674 307.1,38 L308.1,30.3 Z M354.4,38.7 L354.4,51.3 L368.7,51.3 L368.7,59.7 L354.4,59.7 L354.4,85 C354.4,87.133344 354.699997,88.6833285 355.3,89.65 C355.900003,90.6166715 357.333322,91.1 359.6,91.1 C361.866678,91.1 364.299987,90.600005 366.9,89.6 L369.9,97.4 C364.766641,100.000013 359.516693,101.3 354.15,101.3 C348.783306,101.3 345.15001,100.150011 343.25,97.85 C341.34999,95.5499885 340.4,92.200022 340.4,87.8 L340.4,59.7 L335.9,59.7 L334.8,53.6 C335.866672,52.333327 338.06665,51.066673 341.4,49.8 C342.200004,44.333306 344.099985,40.633343 347.1,38.7 L354.4,38.7 Z M373.2,30.3 C376.933352,29.433329 380.399984,29 383.6,29 C386.800016,29 389.499989,29.099999 391.7,29.3 L391.7,54.3 C393.300008,53.233328 395.43332,52.333337 398.1,51.6 C400.76668,50.866663 403.133323,50.5 405.2,50.5 C411.800033,50.5 416.366654,52.099984 418.9,55.3 C421.433346,58.500016 422.7,63.366634 422.7,69.9 L422.7,90.2 C425.300013,91.200005 427.133328,92.333327 428.2,93.6 L427.2,101.3 L404.2,101.3 L403.2,93.6 C404.133338,92.333327 405.966653,91.200005 408.7,90.2 L408.7,70.4 C408.7,66.799982 408.116673,64.3833395 406.95,63.15 C405.783328,61.9166605 403.666682,61.3 400.6,61.3 C397.533318,61.3 394.566681,62.366656 391.7,64.5 L391.7,90.2 C394.300013,91.200005 396.133328,92.333327 397.2,93.6 L396.2,101.3 L373.2,101.3 L372.2,93.6 C373.133338,92.333327 374.966653,91.200005 377.7,90.2 L377.7,41.4 C375.366655,40.599996 373.53334,39.466674 372.2,38 L373.2,30.3 Z M468.6,97.1 C463.999977,100.43335 458.583365,102.1 452.35,102.1 C446.116636,102.1 441.766679,100.800013 439.3,98.2 C436.833321,95.599987 435.6,91.366696 435.6,85.5 L435.6,62.4 C433.266655,61.599996 431.43334,60.466674 430.1,59 L431.1,51.3 C434.833352,50.433329 438.299984,50 441.5,50 C444.700016,50 447.399989,50.099999 449.6,50.3 L449.6,82.2 C449.6,85.800018 450.149995,88.1833275 451.25,89.35 C452.350006,90.5166725 454.533317,91.1 457.8,91.1 C461.066683,91.1 464.099986,90.033344 466.9,87.9 L466.9,62.4 C464.566655,61.599996 462.73334,60.466674 461.4,59 L462.4,51.3 C466.133352,50.433329 469.599984,50 472.8,50 C476.000016,50 478.699989,50.099999 480.9,50.3 L480.9,89.3 C483.233345,89.766669 485.06666,90.33333 486.4,91 L486.4,98.9 C482.39998,101.033344 477.366697,102.1 471.3,102.1 C469.633325,100.899994 468.733334,99.233344 468.6,97.1 Z M488.4,30.3 C492.133352,29.433329 495.599984,29 498.8,29 C502.000016,29 504.699989,29.099999 506.9,29.3 L506.9,54.3 C508.300007,53.299995 510.166655,52.4166705 512.5,51.65 C514.833345,50.8833295 517.066656,50.5 519.2,50.5 C526.466703,50.5 531.566652,52.366648 534.5,56.1 C537.433348,59.833352 538.9,66.199955 538.9,75.2 C538.9,80.200025 538.216673,84.5166485 536.85,88.15 C535.483327,91.7833515 533.633345,94.566657 531.3,96.5 C526.899978,100.233352 521.70003,102.1 515.7,102.1 C511.166644,102.1 506.700022,100.966678 502.3,98.7 C501.033327,100.433342 499.566675,101.3 497.9,101.3 L492.9,101.3 L492.9,41.4 C490.566655,40.599996 488.73334,39.466674 487.4,38 L488.4,30.3 Z M514.9,91.9 C521.300032,91.9 524.5,86.533387 524.5,75.8 C524.5,70.133305 523.950006,66.2833435 522.85,64.25 C521.749995,62.2166565 519.833347,61.2 517.1,61.2 C512.966646,61.2 509.56668,62.299989 506.9,64.5 L506.9,90.2 C509.766681,91.333339 512.433321,91.9 514.9,91.9 Z" id="realthub" fill="#222E3F"></path>
        </g>
    </g>
</svg>