<?xml version="1.0" encoding="UTF-8"?>
<svg width="538px" height="144px" viewBox="0 0 538 144" version="1.1" xmlns="http://www.w3.org/2000/svg" xmlns:xlink="http://www.w3.org/1999/xlink">
    <!-- Generator: Sketch 50.2 (55047) - http://www.bohemiancoding.com/sketch -->
    <title>realthub-bw</title>
    <desc>Created with Sketch.</desc>
    <defs></defs>
    <g id="Logos" stroke="none" stroke-width="1" fill="none" fill-rule="evenodd">
        <g id="realthub-bw" transform="translate(-1.000000, 0.000000)">
            <g>
                <g id="logo-bw">
                    <g id="Logo">
                        <polygon id="Triangle" fill="#C6C6C6" fill-rule="nonzero" points="35.0678711 90 1 108 1 72"></polygon>
                        <polygon id="Triangle" fill="#AAAAAA" fill-rule="nonzero" points="35.0678711 54 1 72 1 36"></polygon>
                        <polygon id="Triangle" fill="#E6E6E6" fill-rule="nonzero" points="35.0678711 126 1 144 1 108"></polygon>
                        <polygon id="Triangle" fill="#AFAFAF" fill-rule="nonzero" transform="translate(17.997849, 72.000000) rotate(-180.000000) translate(-17.997849, -72.000000) " points="35.000001 72 0.995698 90 0.995698 54"></polygon>
                        <polygon id="Triangle" fill="#A4A4A4" fill-rule="nonzero" transform="translate(18.002150, 36.000000) rotate(-180.000000) translate(-18.002150, -36.000000) " points="35.004302 36 0.999999 54 0.999999 18"></polygon>
                        <polygon id="Triangle" fill="#A3A3A3" fill-rule="nonzero" transform="translate(52.002150, 18.000000) rotate(-180.000000) translate(-52.002150, -18.000000) " points="69.004302 18 34.999999 36 34.999999 0"></polygon>
                        <polygon id="Triangle" fill="#BABABA" fill-rule="nonzero" transform="translate(86.002151, 36.000000) rotate(-180.000000) translate(-86.002151, -36.000000) " points="103.004302 36 68.999999 54 68.999999 18"></polygon>
                        <polygon id="Triangle" fill="#AAAAAA" fill-rule="nonzero" transform="translate(120.002150, 54.000000) rotate(-180.000000) translate(-120.002150, -54.000000) " points="137.004302 54 102.999999 72 102.999999 36"></polygon>
                        <polygon id="Triangle" fill="#C0C0C0" fill-rule="nonzero" transform="translate(86.002151, 72.000000) rotate(-180.000000) translate(-86.002151, -72.000000) " points="103.004302 72 68.999999 90 68.999999 54"></polygon>
                        <polygon id="Triangle" fill="#999999" fill-rule="nonzero" transform="translate(86.002151, 108.000000) rotate(-180.000000) translate(-86.002151, -108.000000) " points="103.004302 108 68.999999 126 68.999999 90"></polygon>
                        <polygon id="Triangle" fill="#929292" fill-rule="nonzero" transform="translate(120.002151, 126.000000) rotate(-180.000000) translate(-120.002151, -126.000000) " points="137.004302 126 102.999999 144 102.999999 108"></polygon>
                        <polygon id="Triangle" fill="#A7A7A7" fill-rule="nonzero" points="69.004303 36 35 54 35 18"></polygon>
                        <polygon id="Triangle" fill="#AAAAAA" fill-rule="nonzero" points="103.004303 18 69 36 69 0"></polygon>
                        <polygon id="Triangle" fill="#D0D0D0" fill-rule="nonzero" points="137.004303 36 103 54 103 18"></polygon>
                        <polygon id="Triangle" fill="#BEBEBE" fill-rule="nonzero" points="137.004303 72 103 90 103 54"></polygon>
                        <polygon id="Triangle" fill="#B0B0B0" fill-rule="nonzero" points="103.004303 90 69 108 69 72"></polygon>
                        <polygon id="Triangle" fill="#787878" fill-rule="nonzero" points="137.004303 108 103 126 103 90"></polygon>
                        <polygon id="Triangle" fill="#D7D7D7" fill-rule="nonzero" transform="translate(18.002151, 108.000000) rotate(-180.000000) translate(-18.002151, -108.000000) " points="35.004302 108 0.999999 126 0.999999 90"></polygon>
                    </g>
                </g>
                <g id="text-bw" transform="translate(170.000000, 29.000000)" fill="#7D7D7D" fill-rule="nonzero">
                    <path d="M30,34.6 C24.933308,34.6 21.433343,35.566657 19.5,37.5 L19.5,60.4 C24.900027,61.400005 28.59999,62.799991 30.6,64.6 L29.6,72.3 L1,72.3 L0,64.6 C0.933338,63.333327 2.766653,62.200005 5.5,61.2 L5.5,33.4 C3.166655,32.599996 1.33334,31.466674 0,30 L1,22.3 C4.666685,21.499996 7.966652,21.1 10.9,21.1 C13.833348,21.1 16.266657,21.166666 18.2,21.3 L18.2,27.6 C19.733341,25.799991 21.699988,24.3166725 24.1,23.15 C26.500012,21.9833275 28.683324,21.4 30.65,21.4 C32.616677,21.4 33.966663,21.566665 34.7,21.9 L34.4,34.9 C33.06666,34.699999 31.600008,34.6 30,34.6 Z M62.8,73.1 C54.79996,73.1 48.783354,70.966688 44.75,66.7 C40.716646,62.433312 38.7,56.233374 38.7,48.1 C38.7,43.166642 39.399993,38.9166845 40.8,35.35 C42.200007,31.7833155 44.099988,29.033343 46.5,27.1 C51.16669,23.366648 56.599969,21.5 62.8,21.5 C69.000031,21.5 73.749984,23.0833175 77.05,26.25 C80.350017,29.4166825 82,35.099959 82,43.3 C82,48.100024 79.633357,50.5 74.9,50.5 L53.2,50.5 C53.466668,54.700021 54.549991,57.666658 56.45,59.4 C58.35001,61.133342 61.366646,62 65.5,62 C67.766678,62 69.933323,61.733336 72,61.2 C74.066677,60.666664 75.566662,60.133336 76.5,59.6 L77.9,58.8 L80.9,66.8 C80.499998,67.266669 79.916671,67.8499965 79.15,68.55 C78.38333,69.2500035 76.450016,70.1833275 73.35,71.35 C70.249985,72.516672 66.733353,73.1 62.8,73.1 Z M69.1,41.6 C69.233334,40.666662 69.3,39.53334 69.3,38.2 C69.3,36.86666 68.766672,35.4500075 67.7,33.95 C66.633328,32.4499925 64.783347,31.7 62.15,31.7 C59.516654,31.7 57.500007,32.499992 56.1,34.1 C54.699993,35.700008 53.766669,38.399981 53.3,42.2 L69.1,41.6 Z M89.1,29.7 C89.1,28.699995 89.133333,27.633339 89.2,26.5 C95.400031,23.16665 102.066631,21.5 109.2,21.5 C116.333369,21.5 121.449985,22.8499865 124.55,25.55 C127.650015,28.2500135 129.2,32.733302 129.2,39 L129.2,60.3 C131.533345,60.766669 133.36666,61.33333 134.7,62 L134.7,70.7 C131.299983,72.300008 126.433365,73.1 120.1,73.1 C119.43333,71.366658 118.866669,69.266679 118.4,66.8 C115.533319,71.000021 110.333371,73.1 102.8,73.1 C98.333311,73.1 94.516683,71.800013 91.35,69.2 C88.183318,66.599987 86.6,63.066689 86.6,58.6 C86.6,54.133311 88.083319,50.6166795 91.05,48.05 C94.016682,45.4833205 98.433304,44.2 104.3,44.2 L115.2,44.2 L115.2,39.4 C115.2,34.199974 112.433361,31.6 106.9,31.6 C104.833323,31.6 103.13334,31.799998 101.8,32.2 C101.666666,35.000014 101.26667,37.166659 100.6,38.7 L90.8,38.7 C89.666661,36.366655 89.1,33.366685 89.1,29.7 Z M107.1,62.9 C110.500017,62.9 113.19999,61.90001 115.2,59.9 L115.2,51.7 L108.2,51.7 C103.399976,51.7 101,53.533315 101,57.2 C101,58.866675 101.516662,60.233328 102.55,61.3 C103.583338,62.366672 105.09999,62.9 107.1,62.9 Z M138.1,1.3 C141.833352,0.433329 145.299984,0 148.5,0 C151.700016,0 154.399989,0.099999 156.6,0.3 L156.6,61.2 C159.200013,62.200005 161.033328,63.333327 162.1,64.6 L161.1,72.3 L138.1,72.3 L137.1,64.6 C138.033338,63.333327 139.866653,62.200005 142.6,61.2 L142.6,12.4 C140.266655,11.599996 138.43334,10.466674 137.1,9 L138.1,1.3 Z M184.4,9.7 L184.4,22.3 L198.7,22.3 L198.7,30.7 L184.4,30.7 L184.4,56 C184.4,58.133344 184.699997,59.6833285 185.3,60.65 C185.900003,61.6166715 187.333322,62.1 189.6,62.1 C191.866678,62.1 194.299987,61.600005 196.9,60.6 L199.9,68.4 C194.766641,71.000013 189.516693,72.3 184.15,72.3 C178.783306,72.3 175.15001,71.150011 173.25,68.85 C171.34999,66.5499885 170.4,63.200022 170.4,58.8 L170.4,30.7 L165.9,30.7 L164.8,24.6 C165.866672,23.333327 168.06665,22.066673 171.4,20.8 C172.200004,15.333306 174.099985,11.633343 177.1,9.7 L184.4,9.7 Z M203.2,1.3 C206.933352,0.433329 210.399984,0 213.6,0 C216.800016,0 219.499989,0.099999 221.7,0.3 L221.7,25.3 C223.300008,24.233328 225.43332,23.333337 228.1,22.6 C230.76668,21.866663 233.133323,21.5 235.2,21.5 C241.800033,21.5 246.366654,23.099984 248.9,26.3 C251.433346,29.500016 252.7,34.366634 252.7,40.9 L252.7,61.2 C255.300013,62.200005 257.133328,63.333327 258.2,64.6 L257.2,72.3 L234.2,72.3 L233.2,64.6 C234.133338,63.333327 235.966653,62.200005 238.7,61.2 L238.7,41.4 C238.7,37.799982 238.116673,35.3833395 236.95,34.15 C235.783328,32.9166605 233.666682,32.3 230.6,32.3 C227.533318,32.3 224.566681,33.366656 221.7,35.5 L221.7,61.2 C224.300013,62.200005 226.133328,63.333327 227.2,64.6 L226.2,72.3 L203.2,72.3 L202.2,64.6 C203.133338,63.333327 204.966653,62.200005 207.7,61.2 L207.7,12.4 C205.366655,11.599996 203.53334,10.466674 202.2,9 L203.2,1.3 Z M298.6,68.1 C293.999977,71.43335 288.583365,73.1 282.35,73.1 C276.116636,73.1 271.766679,71.800013 269.3,69.2 C266.833321,66.599987 265.6,62.366696 265.6,56.5 L265.6,33.4 C263.266655,32.599996 261.43334,31.466674 260.1,30 L261.1,22.3 C264.833352,21.433329 268.299984,21 271.5,21 C274.700016,21 277.399989,21.099999 279.6,21.3 L279.6,53.2 C279.6,56.800018 280.149995,59.1833275 281.25,60.35 C282.350006,61.5166725 284.533317,62.1 287.8,62.1 C291.066683,62.1 294.099986,61.033344 296.9,58.9 L296.9,33.4 C294.566655,32.599996 292.73334,31.466674 291.4,30 L292.4,22.3 C296.133352,21.433329 299.599984,21 302.8,21 C306.000016,21 308.699989,21.099999 310.9,21.3 L310.9,60.3 C313.233345,60.766669 315.06666,61.33333 316.4,62 L316.4,69.9 C312.39998,72.033344 307.366697,73.1 301.3,73.1 C299.633325,71.899994 298.733334,70.233344 298.6,68.1 Z M318.4,1.3 C322.133352,0.433329 325.599984,0 328.8,0 C332.000016,0 334.699989,0.099999 336.9,0.3 L336.9,25.3 C338.300007,24.299995 340.166655,23.4166705 342.5,22.65 C344.833345,21.8833295 347.066656,21.5 349.2,21.5 C356.466703,21.5 361.566652,23.366648 364.5,27.1 C367.433348,30.833352 368.9,37.199955 368.9,46.2 C368.9,51.200025 368.216673,55.5166485 366.85,59.15 C365.483327,62.7833515 363.633345,65.566657 361.3,67.5 C356.899978,71.233352 351.70003,73.1 345.7,73.1 C341.166644,73.1 336.700022,71.966678 332.3,69.7 C331.033327,71.433342 329.566675,72.3 327.9,72.3 L322.9,72.3 L322.9,12.4 C320.566655,11.599996 318.73334,10.466674 317.4,9 L318.4,1.3 Z M344.9,62.9 C351.300032,62.9 354.5,57.533387 354.5,46.8 C354.5,41.133305 353.950006,37.2833435 352.85,35.25 C351.749995,33.2166565 349.833347,32.2 347.1,32.2 C342.966646,32.2 339.56668,33.299989 336.9,35.5 L336.9,61.2 C339.766681,62.333339 342.433321,62.9 344.9,62.9 Z" id="realthub"></path>
                </g>
            </g>
        </g>
    </g>
</svg>