<?xml version="1.0" encoding="UTF-8"?>
<svg width="236px" height="236px" viewBox="0 0 236 236" version="1.1" xmlns="http://www.w3.org/2000/svg" xmlns:xlink="http://www.w3.org/1999/xlink">
    <!-- Generator: Sketch 53.2 (72643) - https://sketchapp.com -->
    <title>Combined Shape</title>
    <desc>Created with Sketch.</desc>
    <g id="Page-1" stroke="none" stroke-width="1" fill="none" fill-rule="evenodd">
        <g id="Logo" fill="#000000">
            <path d="M117.75917,82.260956 L153.471745,117.859008 L117.987216,153.684801 L82.2731297,118.084754 L117.758629,82.2604167 L191.402176,7.91244621 C201.201073,-1.98032466 217.164324,-2.05642453 227.057095,7.74247239 C236.949866,17.5413693 237.025966,33.5046201 227.227069,43.397391 L153.471465,117.859577 L227.699688,191.850638 C237.561376,201.680817 237.586918,217.644229 227.756739,227.505917 C217.926561,237.367604 201.963149,237.393147 192.101461,227.562968 L117.986342,153.684649 L44.3431224,228.033375 C34.5442255,237.926146 18.5809747,238.002246 8.68820379,228.203349 C-1.20456709,218.404452 -1.28066696,202.441201 8.51822997,192.54843 L82.2738337,118.086244 L8.04561033,44.0951828 C-1.8160771,34.2650039 -1.84161978,18.3015921 7.98855914,8.43990471 C17.8187381,-1.42178271 33.7821498,-1.4473254 43.6438373,8.38285353 L117.758956,82.2611719 Z" id="Combined-Shape"></path>
        </g>
    </g>
</svg>