<svg width="403px" height="200px" viewBox="0 0 403 200" version="1.1" xmlns="http://www.w3.org/2000/svg" xmlns:xlink="http://www.w3.org/1999/xlink">
    <!-- Generator: Sketch 51.3 (57544) - http://www.bohemiancoding.com/sketch -->
    <desc>Created with Sketch.</desc>
    <defs>
        <linearGradient x1="50%" y1="0%" x2="50%" y2="100%" id="linearGradient-1">
            <stop stop-color="#EEEEEE" stop-opacity="0.148494112" offset="0%"></stop>
            <stop stop-color="#FFFFFF" stop-opacity="0.0648211051" offset="100%"></stop>
        </linearGradient>
    </defs>
    <g id="Page-1" stroke="none" stroke-width="1" fill="none" fill-rule="evenodd">
        <g id="Group" transform="translate(-13.000000, -14.000000)" fill="url(#linearGradient-1)">
            <path d="M99.5238506,145.523851 L99.5238506,123.023851 C99.5238506,114.739579 106.239579,108.023851 114.523851,108.023851 C122.808122,108.023851 129.523851,114.739579 129.523851,123.023851 L129.523851,145.523851 L153.023851,145.523851 C161.308122,145.523851 168.023851,152.239579 168.023851,160.523851 C168.023851,168.808122 161.308122,175.523851 153.023851,175.523851 L129.523851,175.523851 L129.523851,200.023851 C129.523851,208.308122 122.808122,215.023851 114.523851,215.023851 C106.239579,215.023851 99.5238506,208.308122 99.5238506,200.023851 L99.5238506,175.523851 L76.0238506,175.523851 C67.7395794,175.523851 61.0238506,168.808122 61.0238506,160.523851 C61.0238506,152.239579 67.7395794,145.523851 76.0238506,145.523851 L99.5238506,145.523851 Z" id="Combined-Shape" opacity="0.458705357" transform="translate(114.523851, 161.523851) rotate(-345.000000) translate(-114.523851, -161.523851) "></path>
            <path d="M50.8715069,49.9730694 L50.8715069,27.4730694 C50.8715069,19.1887981 57.5872356,12.4730694 65.8715069,12.4730694 C74.1557781,12.4730694 80.8715069,19.1887981 80.8715069,27.4730694 L80.8715069,49.9730694 L104.371507,49.9730694 C112.655778,49.9730694 119.371507,56.6887981 119.371507,64.9730694 C119.371507,73.2573406 112.655778,79.9730694 104.371507,79.9730694 L80.8715069,79.9730694 L80.8715069,104.473069 C80.8715069,112.757341 74.1557781,119.473069 65.8715069,119.473069 C57.5872356,119.473069 50.8715069,112.757341 50.8715069,104.473069 L50.8715069,79.9730694 L27.3715069,79.9730694 C19.0872356,79.9730694 12.3715069,73.2573406 12.3715069,64.9730694 C12.3715069,56.6887981 19.0872356,49.9730694 27.3715069,49.9730694 L50.8715069,49.9730694 Z" id="Combined-Shape" opacity="0.458705357" transform="translate(65.871507, 65.973069) rotate(-255.000000) translate(-65.871507, -65.973069) "></path>
            <path d="M316.5,132 L316.5,120 C316.5,115.857864 319.857864,112.5 324,112.5 C328.142136,112.5 331.5,115.857864 331.5,120 L331.5,132 L343.5,132 C347.642136,132 351,135.357864 351,139.5 C351,143.642136 347.642136,147 343.5,147 L331.5,147 L331.5,159 C331.5,163.142136 328.142136,166.5 324,166.5 C319.857864,166.5 316.5,163.142136 316.5,159 L316.5,147 L304.5,147 C300.357864,147 297,143.642136 297,139.5 C297,135.357864 300.357864,132 304.5,132 L316.5,132 Z" id="Combined-Shape" opacity="0.619754464" transform="translate(324.000000, 139.500000) rotate(-15.000000) translate(-324.000000, -139.500000) "></path>
            <path d="M375.06694,169.06694 L375.06694,155.635856 C375.06694,149.270805 380.226833,144.110913 386.591883,144.110913 C392.956933,144.110913 398.116826,149.270805 398.116826,155.635856 L398.116826,169.06694 L411.54791,169.06694 C417.912961,169.06694 423.072853,174.226833 423.072853,180.591883 C423.072853,186.956933 417.912961,192.116826 411.54791,192.116826 L398.116826,192.116826 L398.116826,205.54791 C398.116826,211.912961 392.956933,217.072853 386.591883,217.072853 C380.226833,217.072853 375.06694,211.912961 375.06694,205.54791 L375.06694,192.116826 L361.635856,192.116826 C355.270805,192.116826 350.110913,186.956933 350.110913,180.591883 C350.110913,174.226833 355.270805,169.06694 361.635856,169.06694 L375.06694,169.06694 Z" id="Combined-Shape" opacity="0.492857143" transform="translate(386.591883, 180.591883) rotate(-45.000000) translate(-386.591883, -180.591883) "></path>
            <path d="M284.79326,89.7932597 L284.79326,84.9287224 C284.79326,81.6928566 287.416447,79.069669 290.652313,79.069669 C293.888179,79.069669 296.511366,81.6928566 296.511366,84.9287224 L296.511366,89.7932597 L301.375904,89.7932597 C304.61177,89.7932597 307.234957,92.4164472 307.234957,95.6523131 C307.234957,98.8881789 304.61177,101.511366 301.375904,101.511366 L296.511366,101.511366 L296.511366,106.375904 C296.511366,109.61177 293.888179,112.234957 290.652313,112.234957 C287.416447,112.234957 284.79326,109.61177 284.79326,106.375904 L284.79326,101.511366 L279.928722,101.511366 C276.692857,101.511366 274.069669,98.8881789 274.069669,95.6523131 C274.069669,92.4164472 276.692857,89.7932597 279.928722,89.7932597 L284.79326,89.7932597 Z" id="Combined-Shape" opacity="0.508705357" transform="translate(290.652313, 95.652313) rotate(-330.000000) translate(-290.652313, -95.652313) "></path>
            <path d="M271.567632,175.567632 L271.567632,170.703095 C271.567632,167.467229 274.19082,164.844041 277.426686,164.844041 C280.662551,164.844041 283.285739,167.467229 283.285739,170.703095 L283.285739,175.567632 L288.150276,175.567632 C291.386142,175.567632 294.00933,178.19082 294.00933,181.426686 C294.00933,184.662551 291.386142,187.285739 288.150276,187.285739 L283.285739,187.285739 L283.285739,192.150276 C283.285739,195.386142 280.662551,198.00933 277.426686,198.00933 C274.19082,198.00933 271.567632,195.386142 271.567632,192.150276 L271.567632,187.285739 L266.703095,187.285739 C263.467229,187.285739 260.844041,184.662551 260.844041,181.426686 C260.844041,178.19082 263.467229,175.567632 266.703095,175.567632 L271.567632,175.567632 Z" id="Combined-Shape" opacity="0.528292411" transform="translate(277.426686, 181.426686) rotate(-388.000000) translate(-277.426686, -181.426686) "></path>
            <path d="M379.282955,88.5524865 L379.282955,76.5524865 C379.282955,72.4103509 382.64082,69.0524865 386.782955,69.0524865 C390.925091,69.0524865 394.282955,72.4103509 394.282955,76.5524865 L394.282955,88.5524865 L406.282955,88.5524865 C410.425091,88.5524865 413.782955,91.9103509 413.782955,96.0524865 C413.782955,100.194622 410.425091,103.552487 406.282955,103.552487 L394.282955,103.552487 L394.282955,115.552487 C394.282955,119.694622 390.925091,123.052487 386.782955,123.052487 C382.64082,123.052487 379.282955,119.694622 379.282955,115.552487 L379.282955,103.552487 L367.282955,103.552487 C363.14082,103.552487 359.782955,100.194622 359.782955,96.0524865 C359.782955,91.9103509 363.14082,88.5524865 367.282955,88.5524865 L379.282955,88.5524865 Z" id="Combined-Shape" transform="translate(386.782955, 96.052487) rotate(-345.000000) translate(-386.782955, -96.052487) "></path>
        </g>
    </g>
</svg>