<?xml version="1.0" encoding="UTF-8"?>
<svg width="30px" height="30px" viewBox="0 0 30 30" version="1.1" xmlns="http://www.w3.org/2000/svg" xmlns:xlink="http://www.w3.org/1999/xlink">
    <!-- Generator: Sketch 49.3 (51167) - http://www.bohemiancoding.com/sketch -->
    <title>Fill 1 Copy</title>
    <desc>Created with Sketch.</desc>
    <defs>
        <radialGradient cx="50%" cy="0%" fx="50%" fy="0%" r="100.975704%" gradientTransform="translate(0.500000,0.000000),scale(1.000000,0.990337),rotate(90.000000),scale(1.000000,1.881422),translate(-0.500000,-0.000000)" id="radialGradient-1">
            <stop stop-color="#017AD5" offset="0%"></stop>
            <stop stop-color="#017AD5" offset="100%"></stop>
        </radialGradient>
    </defs>
    <g id="Page-1" stroke="none" stroke-width="1" fill="none" fill-rule="evenodd">
        <g id="Footer-" transform="translate(-899.000000, -779.000000)" fill="url(#radialGradient-1)">
            <g id="Group" transform="translate(558.000000, 779.000000)">
                <g id="Page-1" transform="translate(291.000000, 0.000000)">
                    <g id="Group-3" transform="translate(0.000000, 0.252055)">
                        <path d="M64.6964523,0.00179650381 C72.5534681,-0.126267496 79.7276875,6.60715117 79.3940593,15.4926338 C79.1172499,22.8668632 72.9172054,30.0026285 64.0437649,29.6817325 C56.7573649,29.4177538 49.675901,23.1460525 50.0114716,14.1678338 C50.2941086,6.6125485 56.5631127,-0.0511954962 64.6964523,0.00179650381 M58.4453815,14.7566004 C58.4475204,14.7566004 58.4496593,14.7566004 58.4517982,14.7566088 C58.4517982,15.399767 58.4502609,16.0429252 58.4525585,16.6860834 C58.4534609,16.9392009 58.4590504,17.1924605 58.4694776,17.4453691 C58.4823611,17.7578578 58.4980353,18.0703717 58.5208447,18.3822672 C58.5417408,18.6681283 58.5968426,18.9487174 58.6790233,19.223767 C58.8246191,19.7110944 59.0746285,20.1319738 59.4522034,20.4779498 C59.7515914,20.7522975 60.0983946,20.9363435 60.4814003,21.0596646 C60.8663611,21.1836124 61.2635873,21.2368928 61.6652583,21.2586411 C62.0012583,21.2768302 62.3376844,21.2883602 62.6740687,21.2979518 C62.9452499,21.305697 63.2166484,21.3094401 63.4879465,21.3092563 C64.6045544,21.308496 65.7211622,21.3073513 66.8377533,21.302355 C67.1868374,21.3008009 67.5359131,21.288143 67.884922,21.2779247 C68.2017972,21.2686422 68.5183799,21.2546056 68.8329826,21.2108166 C69.1017658,21.1734109 69.3651016,21.1147999 69.621394,21.0247153 C69.9939309,20.8937576 70.323698,20.6960678 70.6082891,20.4195393 C70.9276207,20.1092646 71.1484457,19.741532 71.2887611,19.3212793 C71.4227685,18.919909 71.4807528,18.5055299 71.503487,18.0855863 C71.5215925,17.751015 71.5332228,17.4160093 71.5427142,17.0810453 C71.5505095,16.8056531 71.5539517,16.5300521 71.5540771,16.2545263 C71.5545533,15.2297492 71.5536343,14.2049555 71.5514703,13.1801701 C71.5509105,12.9158484 71.5472175,12.6514265 71.5390379,12.3872385 C71.5282014,12.0369847 71.5140645,11.6867811 71.4965773,11.3367947 C71.4819977,11.0450182 71.4408572,10.7564082 71.3709585,10.4724103 C71.2379288,9.93198631 70.9966922,9.45330641 70.5847361,9.06736803 C70.3335987,8.83209701 70.0508792,8.6521367 69.7314306,8.52591633 C69.3280635,8.36653461 68.9069251,8.28972626 68.477298,8.26106829 C68.104193,8.23618683 67.7300854,8.22519153 67.3562619,8.21242495 C67.1199215,8.20434558 66.8833136,8.20097012 66.6468228,8.20115393 C65.4550442,8.20208135 64.2632489,8.20320929 63.0714786,8.2080803 C62.7405084,8.20943383 62.4093878,8.21903383 62.078735,8.23371372 C61.7942358,8.24633827 61.5098369,8.26663278 61.2262316,8.29271738 C60.9699726,8.31627874 60.7199382,8.37522391 60.4739392,8.45172312 C59.9419455,8.61714558 59.502451,8.91695968 59.153392,9.35090641 C58.8957627,9.67119049 58.7413105,10.0404939 58.6379998,10.4335592 C58.5443225,10.7899539 58.506641,11.1546203 58.4901314,11.5216511 C58.4770139,11.8133691 58.465392,12.1051874 58.4570369,12.3970725 C58.4501523,12.6376573 58.4465846,12.8784009 58.4458828,13.119086 C58.4442954,13.6649242 58.4453815,14.2107623 58.4453815,14.7566004 M57.0000008,16.6643518 L57.0000008,12.8460751 C57.0019225,12.8341106 57.005323,12.8221795 57.0055486,12.8101816 C57.0086651,12.6474161 57.0097262,12.4845921 57.0144969,12.321885 C57.0213732,12.0869733 57.0306974,11.8521451 57.0392614,11.6172918 C57.0506076,11.3059477 57.0719549,10.9955477 57.1161199,10.6867853 C57.1667852,10.3326297 57.2498348,9.98696281 57.3671319,9.64879884 C57.6137408,8.93786412 58.028663,8.34406777 58.5995162,7.85609701 C59.0321512,7.4862756 59.5277836,7.23517169 60.0675058,7.06431007 C60.5622024,6.90770224 61.0712531,6.8353555 61.5871799,6.80711529 C61.9287194,6.7884166 62.2706933,6.7767696 62.612617,6.76640929 C62.8560008,6.75903174 63.0996186,6.75573148 63.3431194,6.75633305 C64.707464,6.7597085 66.071817,6.76374401 67.436145,6.77036124 C67.6710484,6.77149754 67.9060771,6.78269336 68.1407048,6.79544323 C68.3849324,6.80871947 68.6291852,6.82481973 68.8726275,6.84811372 C69.2426243,6.88351425 69.6043162,6.96163435 69.9593157,7.07271529 C70.8031215,7.33674453 71.4921575,7.82133148 72.0314034,8.52039362 C72.3460562,8.92830589 72.5574567,9.38801137 72.7070797,9.87818788 C72.8547977,10.3621064 72.9219977,10.8595101 72.9482828,11.3628709 C72.9664886,11.7113534 72.978946,12.0601952 72.9887131,12.4090286 C72.9964332,12.6844291 72.999533,12.9600636 72.9988562,13.2355727 C72.9956228,14.5400364 72.9915204,15.8444918 72.9848614,17.1489304 C72.9836332,17.3893983 72.9694045,17.6298077 72.9607403,17.8702255 C72.948617,18.2065346 72.9257491,18.5418328 72.8752927,18.8750255 C72.8206672,19.2356897 72.7329888,19.5874391 72.6066264,19.9297471 C72.2727904,20.8340855 71.6890202,21.5347017 70.8674473,22.0319717 C70.2359528,22.4141837 69.5370494,22.5970683 68.807675,22.6697576 C68.5630045,22.6941377 68.3170473,22.7086672 68.0713157,22.7185263 C67.7252813,22.7324291 67.3788875,22.7376344 67.0326692,22.7469419 C66.9608322,22.7488636 66.8890452,22.7524145 66.8172332,22.7552135 L63.1827685,22.7552135 C63.1720238,22.7532918 63.1613042,22.7498495 63.1505345,22.749674 C62.9669147,22.7465743 62.783228,22.7461816 62.5996917,22.7405586 C62.2967528,22.7312928 61.9936551,22.7232887 61.6911173,22.7060605 C61.4498724,22.6923247 61.2084019,22.6732166 60.9687277,22.6430046 C60.5613752,22.5916625 60.1650598,22.4920615 59.7806922,22.3454881 C58.8971747,22.0085691 58.2125836,21.4307727 57.7242034,20.6256427 C57.3429189,19.9970808 57.1598504,19.3013607 57.0856489,18.5752699 C57.0609429,18.3334568 57.0468061,18.0902819 57.0366463,17.8473576 C57.0228102,17.5166631 57.0175799,17.1856093 57.0082557,16.8547142 C57.0064677,16.7912406 57.0027998,16.7278088 57.0000008,16.6643518 M65.0011747,12.0921342 C63.5446484,12.0848736 62.3626954,13.2672611 62.3357084,14.7018804 C62.3076019,16.1959462 63.512523,17.409047 64.9791423,17.4190564 C66.4592468,17.4291577 67.6552113,16.2310292 67.663792,14.7722052 C67.6725397,13.2814982 66.4568238,12.0846982 65.0011747,12.0921342 M60.8908959,14.7522365 C60.8839695,12.4876057 62.7479987,10.609448 65.0678484,10.6450825 C67.2816635,10.6790877 69.1257575,12.493989 69.109323,14.7885979 C69.0932311,17.0378386 67.2541502,18.8835786 64.9625408,18.8645457 C62.706616,18.8458136 60.8835852,17.0035911 60.8908959,14.7522365 Z M69.2723484,11.4466708 C68.7693134,11.4487011 68.3215891,11.0570395 68.3078784,10.5072076 C68.2944936,9.97042641 68.7128831,9.5329037 69.2523129,9.52254338 C69.78048,9.5124003 70.2153709,9.92266871 70.2314461,10.4557068 C70.2480058,11.0047282 69.811068,11.4448828 69.2723484,11.4466708 Z" id="Fill-1-Copy"></path>
                    </g>
                </g>
            </g>
        </g>
    </g>
</svg>