<svg xmlns="http://www.w3.org/2000/svg" xmlns:xlink="http://www.w3.org/1999/xlink" width="44" height="44" viewBox="0 0 44 44"><defs><path id="a" d="M0 .000008h43.984276v43.980168H0z"/></defs><g fill="none" fill-rule="evenodd"><mask id="b" fill="#fff"><use xlink:href="#a"/></mask><path fill="#017AD5" fill-rule="nonzero" d="M44 22C44 9.84996 34.149967 0 22 0 9.84996 0 0 9.84996 0 22c0 12.149967 9.84996 22 22 22 12.149967 0 22-9.850033 22-22zm-27.908006 0v-4.20998h2.579967v-2.546033c0-3.434013 1.02602-5.908007 4.786006-5.908007h4.471968v4.199987h-3.147942c-1.578032 0-1.936071 1.04802-1.936071 2.146007v2.107974h4.852006L27.035987 22h-4.189922v12.697954h-4.174104V22h-2.579967z" mask="url(#b)"/></g></svg>