<svg xmlns="http://www.w3.org/2000/svg" width="43" height="43" viewBox="0 0 43 43"><g fill="#017AD5" fill-rule="evenodd"><path d="M21.297457 30.271886c.000533-.027897.001244-.055616.001955-.083512 1.331933 0 2.665644.041223 3.995624-.010306 1.698144-.065744 3.399843-.147835 5.087681-.33405 1.2701-.140194 2.243463-.83086 2.684835-2.086744.214112-.60893.415963-1.244512.475132-1.881872.307042-3.307268.407257-6.619512-.146946-9.912566-.217488-1.292665-.785372-2.42186-2.117128-2.893082-.672897-.238277-1.406207-.407612-2.11624-.42307-4.038446-.087955-8.078136-.15512-12.11747-.154054-1.592955.000533-3.192484.137884-4.776554.3209-1.269922.146591-2.243108.832104-2.684658 2.087633-.214111.60893-.415785 1.244512-.475132 1.881694-.30793 3.307268-.405657 6.619512.147124 9.912566.21731 1.292843.78484 2.42186 2.116773 2.89326.672897.238277 1.404252.39091 2.116595.424314 2.601145.122248 5.20531.178042 7.80841.258889M21.346142.007349c11.71288-.008174 21.31041 9.604636 21.30579 21.330843-.004443 11.725495-9.619563 21.339016-21.368513 21.316805C9.581379 42.632964-.015617 33.034725.00002 21.297857.015832 9.591907 9.613183-.02126 21.346142.007349"/><path d="M17.980183 25.650637v-8.289405c2.879046 1.368182 5.693058 2.705624 8.50707 4.043066.01084.05455.021856.109277.032695.164005-2.81579 1.346148-5.631579 2.69212-8.539765 4.082334"/></g></svg>