<svg xmlns="http://www.w3.org/2000/svg" xmlns:xlink="http://www.w3.org/1999/xlink" width="44" height="44" viewBox="0 0 44 44"><defs><path id="a" d="M0 .000008h43.984276v43.980168H0z"/></defs><g fill="none" fill-rule="evenodd"><mask id="b" fill="#fff"><use xlink:href="#a"/></mask><path fill="#017AD5" d="M33.078075 15.761162c-.026752-.046909-.053505-.093817-.080257-.140909.815402-.71279 1.613947-1.437307 1.879457-2.551568-.9455.334773-1.83145.644626-2.7141.96309-.30124.108477-.544029.072563-.79323-.153551-1.333962-1.211194-2.880112-1.615413-4.656956-1.266531-2.601226.510863-4.529424 3.252448-4.065286 5.871081.063767.36006-.055337.451678-.370687.402021-.90244-.142192-1.826685-.20779-2.70164-.450029-2.890006-.799827-5.356919-2.309147-7.336606-4.583661-.101513-.116722-.235459-.205042-.393959-.340637-.664965 1.209178-.831527 2.415424-.56052 3.683237.271923 1.271662.9772 2.29064 1.980237 3.128214-.035365.05094-.070913.102063-.106277.153186-.646092-.170227-1.292184-.340454-1.992514-.52479-.061384 1.22512.378566 2.252527 1.089341 3.176589.712973.92681 1.673133 1.515182 2.80132 1.847024l-.029501.148421h-2.03924c.352914 1.13625.982515 1.926915 1.80708 2.580154.839405.665331 1.837678.949165 2.991518 1.126904-2.265353 1.701168-4.70368 2.349459-7.397807 2.209466.132296.1563.260379.255615.399455.336056 1.559893.904822 3.239255 1.487697 5.013901 1.7675 2.75551.434636 5.440842.140542 8.039136-.88998 2.794356-1.108398 4.999241-2.944795 6.660097-5.436628 1.747527-2.621748 2.610021-5.51835 2.608922-8.667454-.000184-.358227.14494-.573896.400738-.809538.614942-.566751 1.189755-1.177662 1.770248-1.780876.112324-.116539.176273-.27962.294094-.472934-.897492.242972-1.697136.459557-2.496963.676143M22.014803.000073c12.077852-.007512 21.975006 9.9054 21.969509 21.99901-.005497 12.091044-9.921158 22.004323-22.037856 21.981052C9.875935 43.956864-.041192 34.044502.000037 21.907648.041082 9.869925 9.918263-.029428 22.014804.000073" mask="url(#b)"/></g></svg>