<?xml version="1.0" encoding="utf-8"?>
<svg xmlns="http://www.w3.org/2000/svg" viewBox="0 0 30 30" fill="#000000">
    <path d="M 6 5 C 5.448 5 5 5.448 5 6 L 5 10 C 5 10.552 5.448 11 6 11 L 10 11 C 10.552 11 11 10.552 11 10 L 11 6 C 11 5.448 10.552 5 10 5 L 6 5 z M 13 5 C 12.448 5 12 5.448 12 6 L 12 10 C 12 10.552 12.448 11 13 11 L 17 11 C 17.552 11 18 10.552 18 10 L 18 6 C 18 5.448 17.552 5 17 5 L 13 5 z M 20 5 C 19.448 5 19 5.448 19 6 L 19 10 C 19 10.552 19.448 11 20 11 L 24 11 C 24.552 11 25 10.552 25 10 L 25 6 C 25 5.448 24.552 5 24 5 L 20 5 z M 6 12 C 5.448 12 5 12.448 5 13 L 5 17 C 5 17.552 5.448 18 6 18 L 10 18 C 10.552 18 11 17.552 11 17 L 11 13 C 11 12.448 10.552 12 10 12 L 6 12 z M 13 12 C 12.448 12 12 12.448 12 13 L 12 17 C 12 17.552 12.448 18 13 18 L 17 18 C 17.552 18 18 17.552 18 17 L 18 13 C 18 12.448 17.552 12 17 12 L 13 12 z M 20 12 C 19.448 12 19 12.448 19 13 L 19 17 C 19 17.552 19.448 18 20 18 L 24 18 C 24.552 18 25 17.552 25 17 L 25 13 C 25 12.448 24.552 12 24 12 L 20 12 z M 6 19 C 5.448 19 5 19.448 5 20 L 5 24 C 5 24.552 5.448 25 6 25 L 10 25 C 10.552 25 11 24.552 11 24 L 11 20 C 11 19.448 10.552 19 10 19 L 6 19 z M 13 19 C 12.448 19 12 19.448 12 20 L 12 24 C 12 24.552 12.448 25 13 25 L 17 25 C 17.552 25 18 24.552 18 24 L 18 20 C 18 19.448 17.552 19 17 19 L 13 19 z M 20 19 C 19.448 19 19 19.448 19 20 L 19 24 C 19 24.552 19.448 25 20 25 L 24 25 C 24.552 25 25 24.552 25 24 L 25 20 C 25 19.448 24.552 19 24 19 L 20 19 z" fill="#000000"/>
</svg>