<?xml version="1.0" encoding="utf-8"?>
<svg xmlns="http://www.w3.org/2000/svg" viewBox="0 0 30 30" fill="#000000"><path style="line-height:normal;text-indent:0;text-align:start;text-decoration-line:none;text-decoration-style:solid;text-decoration-color:#000;text-transform:none;block-progression:tb;isolation:auto;mix-blend-mode:normal" d="M 5 6 C 3.895 6 3 6.895 3 8 L 3 20 C 3 21.105 3.895 22 5 22 L 25 22 C 26.105 22 27 21.105 27 20 L 27 8 C 27 6.895 26.105 6 25 6 L 5 6 z M 12 10 C 12.25575 10 12.511531 10.097469 12.707031 10.292969 L 15 12.585938 L 17.292969 10.292969 C 17.683969 9.9019687 18.316031 9.9019688 18.707031 10.292969 C 19.098031 10.683969 19.098031 11.316031 18.707031 11.707031 L 16.414062 14 L 18.707031 16.292969 C 19.098031 16.683969 19.098031 17.316031 18.707031 17.707031 C 18.512031 17.902031 18.256 18 18 18 C 17.744 18 17.487969 17.902031 17.292969 17.707031 L 15 15.414062 L 12.707031 17.707031 C 12.512031 17.902031 12.256 18 12 18 C 11.744 18 11.487969 17.902031 11.292969 17.707031 C 10.901969 17.316031 10.901969 16.683969 11.292969 16.292969 L 13.585938 14 L 11.292969 11.707031 C 10.901969 11.316031 10.901969 10.683969 11.292969 10.292969 C 11.488469 10.097469 11.74425 10 12 10 z M 10 24 A 1.0001 1.0001 0 1 0 10 26 L 20 26 A 1.0001 1.0001 0 1 0 20 24 L 10 24 z" font-weight="400" font-family="sans-serif" white-space="normal" overflow="visible" fill="#000000"/></svg>
